<svg width="1194" height="2855" viewBox="0 0 1194 2855" fill="none" xmlns="http://www.w3.org/2000/svg">
<rect x="132.07" y="1765.62" width="7.5" height="800" rx="3.75" fill="url(#paint0_linear_24_424)"/>
<g filter="url(#filter0_f_24_424)">
<rect x="93.75" y="1645" width="75" height="57.5" rx="28.75" fill="#DD7DF7"/>
</g>
<g clip-path="url(#clip0_24_424)">
<path d="M134.203 1589.43V546.25" stroke="url(#paint1_linear_24_424)" strokeWidth="7.39841" strokeLinecap="round"/>
<path d="M1168.65 35.7593V129.945C1168.65 388.728 958.868 598.51 700.087 598.51H453.473C276.412 598.51 132.875 742.046 132.875 919.11V1051.07" stroke="url(#paint2_linear_24_424)" strokeWidth="7.39841" strokeLinecap="round"/>
<rect width="7.5" height="1040" rx="3.75" transform="matrix(1 0 0 -1 128.75 1582.5)" fill="url(#paint3_linear_24_424)"/>
<g filter="url(#filter1_dd_24_424)">
<path d="M137.119 554.214C147.644 551.394 154.747 543.775 152.985 537.197C151.222 530.619 141.261 527.573 130.737 530.393C120.212 533.213 113.109 540.832 114.871 547.41C116.634 553.988 126.595 557.034 137.119 554.214Z" fill="white"/>
<path d="M150.601 537.836C151.183 540.008 150.392 542.714 147.855 545.434C145.346 548.124 141.367 550.524 136.48 551.833C131.592 553.143 126.948 553.054 123.429 551.979C119.872 550.891 117.834 548.943 117.252 546.773C116.67 544.6 117.461 541.895 119.998 539.175C122.507 536.484 126.486 534.085 131.373 532.775C136.261 531.465 140.905 531.554 144.424 532.63C147.981 533.717 150.019 535.665 150.601 537.836Z" stroke="#9A74D0" strokeWidth="4.93228"/>
</g>
<g filter="url(#filter2_dd_24_424)">
<path d="M1173.42 38.6205C1182.86 33.1725 1187.75 23.975 1184.34 18.0773C1180.94 12.1796 1170.53 11.8151 1161.09 17.2631C1151.66 22.7112 1146.77 31.9087 1150.17 37.8064C1153.58 43.7041 1163.99 44.0686 1173.42 38.6205Z" fill="white"/>
<path d="M1182.21 19.3105C1183.34 21.2572 1183.27 24.0751 1181.53 27.3601C1179.8 30.6088 1176.58 33.9551 1172.2 36.4848C1167.81 39.0149 1163.31 40.1323 1159.63 40.0035C1155.91 39.8733 1153.44 38.5201 1152.31 36.5734C1151.19 34.6266 1151.25 31.8088 1153 28.5239C1154.73 25.275 1157.95 21.9289 1162.33 19.399C1166.71 16.8691 1171.22 15.7516 1174.9 15.8803C1178.62 16.0105 1181.09 17.3637 1182.21 19.3105Z" stroke="#9A74D0" strokeWidth="4.93228"/>
</g>
</g>
<path d="M160.157 1668.44L157.605 1679.32C155.418 1688.72 151.095 1692.53 142.97 1691.74C141.668 1691.64 140.262 1691.41 138.751 1691.04L134.376 1690C123.517 1687.42 120.157 1682.06 122.709 1671.17L125.262 1660.26C125.782 1658.05 126.407 1656.12 127.189 1654.53C130.235 1648.23 135.418 1646.54 144.116 1648.59L148.465 1649.61C159.376 1652.16 162.709 1657.55 160.157 1668.44Z" stroke="white" strokeWidth="4.26136" strokeLinecap="round" strokeLinejoin="round"/>
<path d="M142.961 1691.74C141.346 1692.84 139.315 1693.75 136.841 1694.56L132.727 1695.91C122.388 1699.24 116.945 1696.46 113.586 1686.12L110.253 1675.83C106.919 1665.49 109.68 1660.03 120.018 1656.69L124.133 1655.34C125.201 1655 126.216 1654.71 127.18 1654.53C126.398 1656.12 125.773 1658.05 125.253 1660.26L122.701 1671.17C120.148 1682.06 123.508 1687.42 134.367 1690L138.742 1691.04C140.253 1691.41 141.659 1691.64 142.961 1691.74Z" stroke="white" strokeWidth="4.26136" strokeLinecap="round" strokeLinejoin="round"/>
<path d="M136.672 1663.46L149.302 1666.67" stroke="white" strokeWidth="4.26136" strokeLinecap="round" strokeLinejoin="round"/>
<path d="M134.102 1673.54L141.654 1675.47" stroke="white" strokeWidth="4.26136" strokeLinecap="round" strokeLinejoin="round"/>
<path d="M150.577 2630H116.923C108.957 2630 102.5 2636.46 102.5 2644.42V2678.08C102.5 2686.04 108.957 2692.5 116.923 2692.5H150.577C158.543 2692.5 165 2686.04 165 2678.08V2644.42C165 2636.46 158.543 2630 150.577 2630Z" stroke="white" strokeWidth="4.80769" strokeLinecap="round" strokeLinejoin="round"/>
<path d="M147.768 2650.43L128.537 2674.47L118.922 2667.26" stroke="white" strokeWidth="4.80769" strokeLinecap="round" strokeLinejoin="round"/>
<defs>
<filter id="filter0_f_24_424" x="23.75" y="1575" width="215" height="197.5" filterUnits="userSpaceOnUse" color-interpolation-filters="sRGB">
<feFlood flood-opacity="0" result="BackgroundImageFix"/>
<feBlend mode="normal" in="SourceGraphic" in2="BackgroundImageFix" result="shape"/>
<feGaussianBlur stdDeviation="35" result="effect1_foregroundBlur_24_424"/>
</filter>
<filter id="filter1_dd_24_424" x="102.271" y="517.011" width="58.3775" height="45.6545" filterUnits="userSpaceOnUse" color-interpolation-filters="sRGB">
<feFlood flood-opacity="0" result="BackgroundImageFix"/>
<feColorMatrix in="SourceAlpha" type="matrix" values="0 0 0 0 0 0 0 0 0 0 0 0 0 0 0 0 0 0 127 0" result="hardAlpha"/>
<feOffset dx="-2.46614" dy="-2.46614"/>
<feGaussianBlur stdDeviation="4.93228"/>
<feComposite in2="hardAlpha" operator="out"/>
<feColorMatrix type="matrix" values="0 0 0 0 0 0 0 0 0 0 0 0 0 0 0 0 0 0 0.15 0"/>
<feBlend mode="normal" in2="BackgroundImageFix" result="effect1_dropShadow_24_424"/>
<feColorMatrix in="SourceAlpha" type="matrix" values="0 0 0 0 0 0 0 0 0 0 0 0 0 0 0 0 0 0 127 0" result="hardAlpha"/>
<feOffset dx="-2.46614" dy="-2.46614"/>
<feGaussianBlur stdDeviation="2.46614"/>
<feComposite in2="hardAlpha" operator="out"/>
<feColorMatrix type="matrix" values="0 0 0 0 0 0 0 0 0 0 0 0 0 0 0 0 0 0 0.15 0"/>
<feBlend mode="normal" in2="effect1_dropShadow_24_424" result="effect2_dropShadow_24_424"/>
<feBlend mode="normal" in="SourceGraphic" in2="effect2_dropShadow_24_424" result="shape"/>
</filter>
<filter id="filter2_dd_24_424" x="1136.76" y="1.07343" width="56.0729" height="48.8046" filterUnits="userSpaceOnUse" color-interpolation-filters="sRGB">
<feFlood flood-opacity="0" result="BackgroundImageFix"/>
<feColorMatrix in="SourceAlpha" type="matrix" values="0 0 0 0 0 0 0 0 0 0 0 0 0 0 0 0 0 0 127 0" result="hardAlpha"/>
<feOffset dx="-2.46614" dy="-2.46614"/>
<feGaussianBlur stdDeviation="4.93228"/>
<feComposite in2="hardAlpha" operator="out"/>
<feColorMatrix type="matrix" values="0 0 0 0 0 0 0 0 0 0 0 0 0 0 0 0 0 0 0.15 0"/>
<feBlend mode="normal" in2="BackgroundImageFix" result="effect1_dropShadow_24_424"/>
<feColorMatrix in="SourceAlpha" type="matrix" values="0 0 0 0 0 0 0 0 0 0 0 0 0 0 0 0 0 0 127 0" result="hardAlpha"/>
<feOffset dx="-2.46614" dy="-2.46614"/>
<feGaussianBlur stdDeviation="2.46614"/>
<feComposite in2="hardAlpha" operator="out"/>
<feColorMatrix type="matrix" values="0 0 0 0 0 0 0 0 0 0 0 0 0 0 0 0 0 0 0.15 0"/>
<feBlend mode="normal" in2="effect1_dropShadow_24_424" result="effect2_dropShadow_24_424"/>
<feBlend mode="normal" in="SourceGraphic" in2="effect2_dropShadow_24_424" result="shape"/>
</filter>
<linearGradient id="paint0_linear_24_424" x1="135.82" y1="1765.62" x2="135.82" y2="2565.62" gradientUnits="userSpaceOnUse">
<stop stop-color="#D2A8FF"/>
<stop offset="0.1" stop-color="#A371F7"/>
<stop offset="0.7" stop-color="#196C2E"/>
<stop offset="0.8" stop-color="#2EA043"/>
<stop offset="1" stop-color="#56D364"/>
</linearGradient>
<linearGradient id="paint1_linear_24_424" x1="nan" y1="nan" x2="nan" y2="nan" gradientUnits="userSpaceOnUse">
<stop stop-color="#D2A8FF"/>
<stop offset="0.0908581" stop-color="#A371F7"/>
<stop offset="0.599056" stop-color="#6639BA"/>
<stop offset="0.902019" stop-color="#6639BA"/>
<stop offset="1" stop-color="#D2A8FF" stop-opacity="0"/>
</linearGradient>
<linearGradient id="paint2_linear_24_424" x1="-190.189" y1="1346.51" x2="1089.7" y2="-83.0148" gradientUnits="userSpaceOnUse">
<stop stop-color="#A371F7"/>
<stop offset="0.00733964" stop-color="#9E72D3"/>
<stop offset="0.251918" stop-color="#6639BA" stop-opacity="0"/>
<stop offset="0.325848" stop-color="#6639BA"/>
<stop offset="0.945217" stop-color="#6639BA"/>
<stop offset="1" stop-color="#6639BA" stop-opacity="0"/>
</linearGradient>
<linearGradient id="paint3_linear_24_424" x1="3.75" y1="0" x2="3.75" y2="1040" gradientUnits="userSpaceOnUse">
<stop stop-color="#D2A8FF"/>
<stop offset="0.1" stop-color="#A371F7"/>
<stop offset="0.688361" stop-color="#4C2E8E"/>
<stop offset="0.932292" stop-color="#6639BA"/>
<stop offset="1" stop-color="#6639BA" stop-opacity="0"/>
</linearGradient>
<clipPath id="clip0_24_424">
<rect width="1092.5" height="1593.12" fill="white" transform="translate(100.82)"/>
</clipPath>
</defs>
</svg>
