<svg width="328" height="2093" viewBox="0 0 328 2093" fill="none" xmlns="http://www.w3.org/2000/svg">
<g clip-path="url(#clip0_12_483)">
<path d="M129.289 903.964L129.289 981.982C129.289 1045.96 153.389 1107.59 196.789 1154.59C240.189 1201.59 264.289 1263.22 264.289 1327.2V1606.12C264.289 1670.79 240.228 1733.15 196.789 1781.07C153.35 1828.98 129.289 1891.34 129.289 1956.02L129.289 2032.84" stroke="url(#paint0_linear_12_483)" strokeWidth="6.98276"/>
<g filter="url(#filter0_dddd_12_483)">
<path d="M265.305 1453.56C273.582 1453.56 280.291 1460.27 280.291 1468.55C280.291 1476.82 273.582 1483.53 265.305 1483.53C257.029 1483.53 250.32 1476.82 250.32 1468.55C250.32 1460.27 257.029 1453.56 265.305 1453.56Z" fill="black"/>
<path d="M265.31 1457.05C271.658 1457.05 276.804 1462.2 276.804 1468.55C276.804 1474.9 271.658 1480.04 265.31 1480.04C258.962 1480.04 253.816 1474.9 253.816 1468.55C253.816 1462.2 258.962 1457.05 265.31 1457.05Z" stroke="white" strokeWidth="6.98276"/>
</g>
</g>
<rect x="125.891" y="0.414062" width="7.5" height="2092.5" fill="url(#paint1_linear_12_483)"/>
<defs>
<filter id="filter0_dddd_12_483" x="203.769" y="1407.01" width="123.079" height="123.074" filterUnits="userSpaceOnUse" color-interpolation-filters="sRGB">
<feFlood flood-opacity="0" result="BackgroundImageFix"/>
<feColorMatrix in="SourceAlpha" type="matrix" values="0 0 0 0 0 0 0 0 0 0 0 0 0 0 0 0 0 0 127 0" result="hardAlpha"/>
<feOffset/>
<feGaussianBlur stdDeviation="17.4569"/>
<feComposite in2="hardAlpha" operator="out"/>
<feColorMatrix type="matrix" values="0 0 0 0 1 0 0 0 0 0.717647 0 0 0 0 0.486275 0 0 0 1 0"/>
<feBlend mode="normal" in2="BackgroundImageFix" result="effect1_dropShadow_12_483"/>
<feColorMatrix in="SourceAlpha" type="matrix" values="0 0 0 0 0 0 0 0 0 0 0 0 0 0 0 0 0 0 127 0" result="hardAlpha"/>
<feOffset/>
<feGaussianBlur stdDeviation="23.2759"/>
<feComposite in2="hardAlpha" operator="out"/>
<feColorMatrix type="matrix" values="0 0 0 0 1 0 0 0 0 0.717647 0 0 0 0 0.486275 0 0 0 1 0"/>
<feBlend mode="normal" in2="effect1_dropShadow_12_483" result="effect2_dropShadow_12_483"/>
<feColorMatrix in="SourceAlpha" type="matrix" values="0 0 0 0 0 0 0 0 0 0 0 0 0 0 0 0 0 0 127 0" result="hardAlpha"/>
<feOffset/>
<feGaussianBlur stdDeviation="5.81897"/>
<feComposite in2="hardAlpha" operator="out"/>
<feColorMatrix type="matrix" values="0 0 0 0 1 0 0 0 0 0.717647 0 0 0 0 0.486275 0 0 0 1 0"/>
<feBlend mode="normal" in2="effect2_dropShadow_12_483" result="effect3_dropShadow_12_483"/>
<feColorMatrix in="SourceAlpha" type="matrix" values="0 0 0 0 0 0 0 0 0 0 0 0 0 0 0 0 0 0 127 0" result="hardAlpha"/>
<feOffset/>
<feGaussianBlur stdDeviation="17.4569"/>
<feComposite in2="hardAlpha" operator="out"/>
<feColorMatrix type="matrix" values="0 0 0 0 1 0 0 0 0 0.717647 0 0 0 0 0.486275 0 0 0 1 0"/>
<feBlend mode="normal" in2="effect3_dropShadow_12_483" result="effect4_dropShadow_12_483"/>
<feBlend mode="normal" in="SourceGraphic" in2="effect4_dropShadow_12_483" result="shape"/>
</filter>
<linearGradient id="paint0_linear_12_483" x1="180.496" y1="903.964" x2="177.004" y2="2032.84" gradientUnits="userSpaceOnUse">
<stop offset="0.0515742" stop-color="#AC3220" stop-opacity="0"/>
<stop offset="0.225992" stop-color="#EA6045"/>
<stop offset="0.47249" stop-color="#EA6045"/>
<stop offset="0.522324" stop-color="#FFA28B"/>
<stop offset="0.561417" stop-color="#EA6045"/>
<stop offset="0.791714" stop-color="#EA6045"/>
<stop offset="0.956186" stop-color="#AC3220" stop-opacity="0"/>
</linearGradient>
<linearGradient id="paint1_linear_12_483" x1="129.641" y1="0.414062" x2="129.641" y2="2092.91" gradientUnits="userSpaceOnUse">
<stop stop-color="#0D1117"/>
<stop offset="0.333333" stop-color="#EA6045"/>
<stop offset="0.666667" stop-color="#EA6045"/>
<stop offset="1" stop-color="#0D1117"/>
</linearGradient>
<clipPath id="clip0_12_483">
<rect width="202.5" height="1130" fill="white" transform="translate(124.641 903.402)"/>
</clipPath>
</defs>
</svg>
