<svg width="327" height="1803" viewBox="0 0 327 1803" fill="none" xmlns="http://www.w3.org/2000/svg">
<g clip-path="url(#clip0_24_89)">
<path d="M128.789 614.128L128.789 692.146C128.789 756.122 152.889 817.75 196.289 864.753C239.689 911.759 263.789 973.386 263.789 1037.36V1316.28C263.789 1380.95 239.728 1443.31 196.289 1491.23C152.85 1539.14 128.789 1601.51 128.789 1666.18L128.789 1743.01" stroke="url(#paint0_linear_24_89)" stroke-width="6.98276"/>
<g filter="url(#filter0_dddd_24_89)">
<path d="M263.227 1163.73C271.503 1163.73 278.212 1170.44 278.212 1178.71C278.212 1186.99 271.503 1193.7 263.227 1193.7C254.951 1193.7 248.242 1186.99 248.242 1178.71C248.242 1170.44 254.951 1163.73 263.227 1163.73Z" fill="black"/>
<path d="M263.228 1167.22C269.576 1167.22 274.722 1172.37 274.722 1178.71C274.722 1185.06 269.576 1190.21 263.228 1190.21C256.88 1190.21 251.734 1185.06 251.734 1178.71C251.734 1172.37 256.88 1167.22 263.228 1167.22Z" stroke="white" stroke-width="6.98276"/>
</g>
</g>
<rect x="125.391" y="0.5" width="7.5" height="1802.5" fill="url(#paint1_linear_24_89)"/>
<defs>
<filter id="filter0_dddd_24_89" x="201.69" y="1117.18" width="123.072" height="123.074" filterUnits="userSpaceOnUse" color-interpolation-filters="sRGB">
<feFlood flood-opacity="0" result="BackgroundImageFix"/>
<feColorMatrix in="SourceAlpha" type="matrix" values="0 0 0 0 0 0 0 0 0 0 0 0 0 0 0 0 0 0 127 0" result="hardAlpha"/>
<feOffset/>
<feGaussianBlur stdDeviation="17.4569"/>
<feComposite in2="hardAlpha" operator="out"/>
<feColorMatrix type="matrix" values="0 0 0 0 0.670588 0 0 0 0 0.705882 0 0 0 0 1 0 0 0 1 0"/>
<feBlend mode="normal" in2="BackgroundImageFix" result="effect1_dropShadow_24_89"/>
<feColorMatrix in="SourceAlpha" type="matrix" values="0 0 0 0 0 0 0 0 0 0 0 0 0 0 0 0 0 0 127 0" result="hardAlpha"/>
<feOffset/>
<feGaussianBlur stdDeviation="23.2759"/>
<feComposite in2="hardAlpha" operator="out"/>
<feColorMatrix type="matrix" values="0 0 0 0 0.670588 0 0 0 0 0.705882 0 0 0 0 1 0 0 0 1 0"/>
<feBlend mode="normal" in2="effect1_dropShadow_24_89" result="effect2_dropShadow_24_89"/>
<feColorMatrix in="SourceAlpha" type="matrix" values="0 0 0 0 0 0 0 0 0 0 0 0 0 0 0 0 0 0 127 0" result="hardAlpha"/>
<feOffset/>
<feGaussianBlur stdDeviation="5.81897"/>
<feComposite in2="hardAlpha" operator="out"/>
<feColorMatrix type="matrix" values="0 0 0 0 0.670588 0 0 0 0 0.705882 0 0 0 0 1 0 0 0 1 0"/>
<feBlend mode="normal" in2="effect2_dropShadow_24_89" result="effect3_dropShadow_24_89"/>
<feColorMatrix in="SourceAlpha" type="matrix" values="0 0 0 0 0 0 0 0 0 0 0 0 0 0 0 0 0 0 127 0" result="hardAlpha"/>
<feOffset/>
<feGaussianBlur stdDeviation="17.4569"/>
<feComposite in2="hardAlpha" operator="out"/>
<feColorMatrix type="matrix" values="0 0 0 0 0.670588 0 0 0 0 0.705882 0 0 0 0 1 0 0 0 1 0"/>
<feBlend mode="normal" in2="effect3_dropShadow_24_89" result="effect4_dropShadow_24_89"/>
<feBlend mode="normal" in="SourceGraphic" in2="effect4_dropShadow_24_89" result="shape"/>
</filter>
<linearGradient id="paint0_linear_24_89" x1="179.996" y1="614.128" x2="176.504" y2="1743.01" gradientUnits="userSpaceOnUse">
<stop offset="0.0515742" stop-color="#3C42D0" stop-opacity="0"/>
<stop offset="0.252417" stop-color="#797EF9"/>
<stop offset="0.441119" stop-color="#949BFC"/>
<stop offset="0.522324" stop-color="#ABB4FF"/>
<stop offset="0.601552" stop-color="#797EF9"/>
<stop offset="0.799379" stop-color="#797EF9"/>
<stop offset="0.925493" stop-color="#3C42D0" stop-opacity="0"/>
</linearGradient>
<linearGradient id="paint1_linear_24_89" x1="129.141" y1="0.5" x2="129.141" y2="1803" gradientUnits="userSpaceOnUse">
<stop stop-color="#0D1117"/>
<stop offset="0.333333" stop-color="#797EF9"/>
<stop offset="0.666667" stop-color="#797EF9"/>
<stop offset="1" stop-color="#0D1117"/>
</linearGradient>
<clipPath id="clip0_24_89">
<rect width="202.5" height="1128.88" fill="white" transform="translate(124.141 614.128)"/>
</clipPath>
</defs>
</svg>
