<svg width="110" height="110" viewBox="0 0 110 110" fill="none" xmlns="http://www.w3.org/2000/svg">
<g clip-path="url(#clip0_24_465)">
<path d="M110 55C110 24.6243 85.3757 0 55 0C24.6243 0 0 24.6243 0 55C0 85.3757 24.6243 110 55 110C85.3757 110 110 85.3757 110 55Z" fill="white"/>
<path d="M80.0098 51.1L77.5598 61.55C75.4598 70.575 71.3098 74.225 63.5098 73.475C62.2598 73.375 60.9098 73.15 59.4598 72.8L55.2598 71.8C44.8348 69.325 41.6098 64.175 44.0598 53.725L46.5098 43.25C47.0098 41.125 47.6098 39.275 48.3598 37.75C51.2848 31.7 56.2598 30.075 64.6098 32.05L68.7848 33.025C79.2598 35.475 82.4598 40.65 80.0098 51.1Z" stroke="black" strokeWidth="6.55" strokeLinecap="round" strokeLinejoin="round"/>
<path d="M63.5053 73.475C61.9553 74.525 60.0053 75.4 57.6303 76.175L53.6803 77.475C43.7553 80.675 38.5303 78 35.3053 68.075L32.1053 58.2C28.9053 48.275 31.5553 43.025 41.4803 39.825L45.4303 38.525C46.4553 38.2 47.4303 37.925 48.3553 37.75C47.6053 39.275 47.0053 41.125 46.5053 43.25L44.0553 53.725C41.6053 64.175 44.8303 69.325 55.2553 71.8L59.4553 72.8C60.9053 73.15 62.2553 73.375 63.5053 73.475Z" stroke="black" strokeWidth="6.55" strokeLinecap="round" strokeLinejoin="round"/>
<path d="M57.4609 46.325L69.5859 49.4" stroke="black" strokeWidth="6.55" strokeLinecap="round" strokeLinejoin="round"/>
<path d="M55 56L62.25 57.85" stroke="black" strokeWidth="6.55" strokeLinecap="round" strokeLinejoin="round"/>
</g>
<defs>
<clipPath id="clip0_24_465">
<rect width="110" height="110" fill="white"/>
</clipPath>
</defs>
</svg>
