<svg width="1094" height="1594" viewBox="0 0 1094 1594" fill="none" xmlns="http://www.w3.org/2000/svg">
<g clip-path="url(#clip0_24_428)">
<path d="M34.2031 1589.43V546.25" stroke="url(#paint0_linear_24_428)" stroke-width="7.39841" stroke-linecap="round"/>
<path d="M1068.65 35.7593V129.945C1068.65 388.728 858.868 598.51 600.087 598.51H353.473C176.412 598.51 32.875 742.046 32.875 919.11V1051.07" stroke="url(#paint1_linear_24_428)" stroke-width="7.39841" stroke-linecap="round"/>
<rect width="7.5" height="1040" rx="3.75" transform="matrix(1 0 0 -1 28.75 1582.5)" fill="url(#paint2_linear_24_428)"/>
<g filter="url(#filter0_dd_24_428)">
<path d="M37.1194 554.214C47.6442 551.394 54.7474 543.775 52.9848 537.197C51.2222 530.619 41.2613 527.573 30.7365 530.393C20.2117 533.213 13.1085 540.832 14.8711 547.41C16.6337 553.988 26.5946 557.034 37.1194 554.214Z" fill="white"/>
<path d="M50.6012 537.836C51.1829 540.008 50.3916 542.714 47.8546 545.434C45.3456 548.124 41.367 550.524 36.4796 551.833C31.5922 553.143 26.9477 553.054 23.4292 551.979C19.8716 550.891 17.8336 548.943 17.2518 546.773C16.67 544.6 17.4614 541.895 19.9984 539.175C22.5074 536.484 26.4861 534.085 31.3734 532.775C36.2608 531.465 40.9053 531.554 44.4238 532.63C47.9814 533.717 50.0194 535.665 50.6012 537.836Z" stroke="#9A74D0" stroke-width="4.93228"/>
</g>
<g filter="url(#filter1_dd_24_428)">
<path d="M1073.42 38.6205C1082.86 33.1725 1087.75 23.975 1084.34 18.0773C1080.94 12.1796 1070.53 11.8151 1061.09 17.2631C1051.66 22.7112 1046.77 31.9087 1050.17 37.8064C1053.58 43.7041 1063.99 44.0686 1073.42 38.6205Z" fill="white"/>
<path d="M1082.21 19.3105C1083.34 21.2572 1083.27 24.0751 1081.53 27.3601C1079.8 30.6088 1076.58 33.9551 1072.2 36.4848C1067.81 39.0149 1063.31 40.1323 1059.63 40.0035C1055.91 39.8733 1053.44 38.5201 1052.31 36.5734C1051.19 34.6266 1051.25 31.8088 1053 28.5239C1054.73 25.275 1057.95 21.9289 1062.33 19.399C1066.71 16.8691 1071.22 15.7516 1074.9 15.8803C1078.62 16.0105 1081.09 17.3637 1082.21 19.3105Z" stroke="#9A74D0" stroke-width="4.93228"/>
</g>
</g>
<defs>
<filter id="filter0_dd_24_428" x="2.27087" y="517.011" width="58.3775" height="45.6545" filterUnits="userSpaceOnUse" color-interpolation-filters="sRGB">
<feFlood flood-opacity="0" result="BackgroundImageFix"/>
<feColorMatrix in="SourceAlpha" type="matrix" values="0 0 0 0 0 0 0 0 0 0 0 0 0 0 0 0 0 0 127 0" result="hardAlpha"/>
<feOffset dx="-2.46614" dy="-2.46614"/>
<feGaussianBlur stdDeviation="4.93228"/>
<feComposite in2="hardAlpha" operator="out"/>
<feColorMatrix type="matrix" values="0 0 0 0 0 0 0 0 0 0 0 0 0 0 0 0 0 0 0.15 0"/>
<feBlend mode="normal" in2="BackgroundImageFix" result="effect1_dropShadow_24_428"/>
<feColorMatrix in="SourceAlpha" type="matrix" values="0 0 0 0 0 0 0 0 0 0 0 0 0 0 0 0 0 0 127 0" result="hardAlpha"/>
<feOffset dx="-2.46614" dy="-2.46614"/>
<feGaussianBlur stdDeviation="2.46614"/>
<feComposite in2="hardAlpha" operator="out"/>
<feColorMatrix type="matrix" values="0 0 0 0 0 0 0 0 0 0 0 0 0 0 0 0 0 0 0.15 0"/>
<feBlend mode="normal" in2="effect1_dropShadow_24_428" result="effect2_dropShadow_24_428"/>
<feBlend mode="normal" in="SourceGraphic" in2="effect2_dropShadow_24_428" result="shape"/>
</filter>
<filter id="filter1_dd_24_428" x="1036.76" y="1.07343" width="56.0729" height="48.8046" filterUnits="userSpaceOnUse" color-interpolation-filters="sRGB">
<feFlood flood-opacity="0" result="BackgroundImageFix"/>
<feColorMatrix in="SourceAlpha" type="matrix" values="0 0 0 0 0 0 0 0 0 0 0 0 0 0 0 0 0 0 127 0" result="hardAlpha"/>
<feOffset dx="-2.46614" dy="-2.46614"/>
<feGaussianBlur stdDeviation="4.93228"/>
<feComposite in2="hardAlpha" operator="out"/>
<feColorMatrix type="matrix" values="0 0 0 0 0 0 0 0 0 0 0 0 0 0 0 0 0 0 0.15 0"/>
<feBlend mode="normal" in2="BackgroundImageFix" result="effect1_dropShadow_24_428"/>
<feColorMatrix in="SourceAlpha" type="matrix" values="0 0 0 0 0 0 0 0 0 0 0 0 0 0 0 0 0 0 127 0" result="hardAlpha"/>
<feOffset dx="-2.46614" dy="-2.46614"/>
<feGaussianBlur stdDeviation="2.46614"/>
<feComposite in2="hardAlpha" operator="out"/>
<feColorMatrix type="matrix" values="0 0 0 0 0 0 0 0 0 0 0 0 0 0 0 0 0 0 0.15 0"/>
<feBlend mode="normal" in2="effect1_dropShadow_24_428" result="effect2_dropShadow_24_428"/>
<feBlend mode="normal" in="SourceGraphic" in2="effect2_dropShadow_24_428" result="shape"/>
</filter>
<linearGradient id="paint0_linear_24_428" x1="nan" y1="nan" x2="nan" y2="nan" gradientUnits="userSpaceOnUse">
<stop stop-color="#D2A8FF"/>
<stop offset="0.0908581" stop-color="#A371F7"/>
<stop offset="0.599056" stop-color="#6639BA"/>
<stop offset="0.902019" stop-color="#6639BA"/>
<stop offset="1" stop-color="#D2A8FF" stop-opacity="0"/>
</linearGradient>
<linearGradient id="paint1_linear_24_428" x1="-290.189" y1="1346.51" x2="989.704" y2="-83.0148" gradientUnits="userSpaceOnUse">
<stop stop-color="#A371F7"/>
<stop offset="0.00733964" stop-color="#9E72D3"/>
<stop offset="0.251918" stop-color="#6639BA" stop-opacity="0"/>
<stop offset="0.325848" stop-color="#6639BA"/>
<stop offset="0.945217" stop-color="#6639BA"/>
<stop offset="1" stop-color="#6639BA" stop-opacity="0"/>
</linearGradient>
<linearGradient id="paint2_linear_24_428" x1="3.75" y1="0" x2="3.75" y2="1040" gradientUnits="userSpaceOnUse">
<stop stop-color="#D2A8FF"/>
<stop offset="0.1" stop-color="#A371F7"/>
<stop offset="0.688361" stop-color="#4C2E8E"/>
<stop offset="0.932292" stop-color="#6639BA"/>
<stop offset="1" stop-color="#6639BA" stop-opacity="0"/>
</linearGradient>
<clipPath id="clip0_24_428">
<rect width="1092.5" height="1593.12" fill="white" transform="translate(0.820312)"/>
</clipPath>
</defs>
</svg>
