<svg width="143" height="28" viewBox="0 0 143 28" fill="none" xmlns="http://www.w3.org/2000/svg">
<path d="M45.1754 10.7297H42.7664C42.6738 10.215 42.5013 9.76201 42.2491 9.37081C41.9969 8.97961 41.6881 8.6476 41.3226 8.37479C40.9571 8.10198 40.5479 7.89609 40.095 7.75711C39.6471 7.61813 39.171 7.54864 38.6666 7.54864C37.7555 7.54864 36.9396 7.7777 36.219 8.23582C35.5035 8.69393 34.9373 9.36566 34.5204 10.251C34.1086 11.1363 33.9027 12.2173 33.9027 13.4938C33.9027 14.7807 34.1086 15.8668 34.5204 16.7521C34.9373 17.6375 35.5061 18.3066 36.2267 18.7596C36.9474 19.2126 37.7581 19.439 38.6588 19.439C39.1581 19.439 39.6317 19.3721 40.0795 19.2383C40.5325 19.0993 40.9417 18.896 41.3072 18.6283C41.6726 18.3607 41.9815 18.0338 42.2337 17.6478C42.4911 17.2566 42.6686 16.8087 42.7664 16.3043L45.1754 16.312C45.0467 17.0893 44.7971 17.8047 44.4265 18.4585C44.061 19.107 43.59 19.6681 43.0135 20.1416C42.4422 20.6101 41.7884 20.9729 41.0524 21.2303C40.3163 21.4877 39.5133 21.6164 38.6434 21.6164C37.2742 21.6164 36.0543 21.2921 34.9836 20.6435C33.913 19.9898 33.0688 19.0556 32.4511 17.8408C31.8386 16.626 31.5323 15.177 31.5323 13.4938C31.5323 11.8055 31.8412 10.3565 32.4589 9.1469C33.0765 7.93212 33.9207 7.00045 34.9914 6.35188C36.062 5.69817 37.2794 5.37131 38.6434 5.37131C39.4824 5.37131 40.2648 5.49227 40.9906 5.7342C41.7215 5.97098 42.3778 6.321 42.9595 6.78426C43.5411 7.24238 44.0224 7.80344 44.4033 8.46745C44.7842 9.12631 45.0416 9.88039 45.1754 10.7297ZM49.4123 5.5875L53.8133 18.4662H53.9909L58.3919 5.5875H60.9707L55.2803 21.4002H52.5239L46.8335 5.5875H49.4123ZM69.0083 21.4002V5.5875H74.7991C75.9212 5.5875 76.8503 5.77281 77.5864 6.14341C78.3224 6.50888 78.8732 7.0056 79.2387 7.63357C79.6041 8.2564 79.7869 8.95902 79.7869 9.74142C79.7869 10.4003 79.6659 10.9562 79.424 11.4092C79.182 11.857 78.8578 12.2173 78.4511 12.4901C78.0496 12.7578 77.607 12.9534 77.1231 13.0769V13.2313C77.6481 13.2571 78.1603 13.4269 78.6596 13.7409C79.164 14.0498 79.581 14.4899 79.9104 15.0612C80.2398 15.6326 80.4045 16.3275 80.4045 17.1459C80.4045 17.954 80.2141 18.6798 79.8332 19.3232C79.4574 19.9615 78.8758 20.4685 78.0882 20.8443C77.3007 21.2149 76.2944 21.4002 75.0693 21.4002H69.0083ZM71.3941 19.3541H74.8377C75.9804 19.3541 76.7988 19.1328 77.293 18.6901C77.7871 18.2474 78.0342 17.6941 78.0342 17.0301C78.0342 16.5308 77.9081 16.0727 77.6559 15.6557C77.4036 15.2388 77.0433 14.9068 76.5749 14.6597C76.1116 14.4126 75.5609 14.2891 74.9226 14.2891H71.3941V19.3541ZM71.3941 12.4283H74.5906C75.1259 12.4283 75.6072 12.3254 76.0344 12.1195C76.4668 11.9136 76.8091 11.6253 77.0613 11.2547C77.3187 10.879 77.4474 10.4363 77.4474 9.92672C77.4474 9.27301 77.2183 8.72481 76.7602 8.28214C76.3021 7.83947 75.5995 7.61813 74.6524 7.61813H71.3941V12.4283ZM90.5616 16.4819V9.54067H92.8779V21.4002H90.6079V19.3464H90.4844C90.2115 19.9795 89.774 20.5071 89.1718 20.9292C88.5747 21.3461 87.8309 21.5546 86.9404 21.5546C86.1786 21.5546 85.5043 21.3873 84.9175 21.0527C84.3358 20.713 83.8777 20.2111 83.5431 19.5471C83.2137 18.8831 83.049 18.0621 83.049 17.0841V9.54067H85.3576V16.8062C85.3576 17.6143 85.5815 18.2577 86.0293 18.7364C86.4771 19.2151 87.0588 19.4545 87.7743 19.4545C88.2066 19.4545 88.6365 19.3464 89.0637 19.1302C89.4961 18.914 89.8538 18.5871 90.1369 18.1496C90.4252 17.7121 90.5667 17.1562 90.5616 16.4819ZM95.9798 21.4002V9.54067H98.2884V21.4002H95.9798ZM97.1457 7.71078C96.7442 7.71078 96.3993 7.57695 96.1111 7.30929C95.828 7.03648 95.6864 6.7122 95.6864 6.33644C95.6864 5.95554 95.828 5.63125 96.1111 5.36359C96.3993 5.09078 96.7442 4.95438 97.1457 4.95438C97.5472 4.95438 97.8895 5.09078 98.1726 5.36359C98.4608 5.63125 98.605 5.95554 98.605 6.33644C98.605 6.7122 98.4608 7.03648 98.1726 7.30929C97.8895 7.57695 97.5472 7.71078 97.1457 7.71078ZM103.703 5.5875V21.4002H101.394V5.5875H103.703ZM111.248 21.6318C110.291 21.6318 109.436 21.3873 108.685 20.8983C107.938 20.4042 107.352 19.7015 106.924 18.7905C106.502 17.8742 106.291 16.7753 106.291 15.4936C106.291 14.2119 106.505 13.1155 106.932 12.2044C107.364 11.2933 107.956 10.5959 108.708 10.112C109.459 9.62818 110.311 9.38625 111.264 9.38625C112 9.38625 112.592 9.50979 113.039 9.75686C113.492 9.99878 113.842 10.2819 114.089 10.6062C114.342 10.9305 114.537 11.2161 114.676 11.4632H114.815V5.5875H117.124V21.4002H114.869V19.5548H114.676C114.537 19.8071 114.337 20.0953 114.074 20.4196C113.817 20.7439 113.462 21.027 113.009 21.2689C112.556 21.5108 111.969 21.6318 111.248 21.6318ZM111.758 19.6629C112.422 19.6629 112.983 19.4879 113.441 19.1379C113.904 18.7827 114.254 18.2912 114.491 17.6632C114.733 17.0352 114.854 16.3043 114.854 15.4704C114.854 14.6468 114.735 13.9262 114.499 13.3085C114.262 12.6909 113.914 12.2096 113.456 11.8647C112.998 11.5198 112.432 11.3474 111.758 11.3474C111.063 11.3474 110.484 11.5275 110.021 11.8879C109.557 12.2482 109.207 12.7398 108.97 13.3626C108.739 13.9854 108.623 14.688 108.623 15.4704C108.623 16.2631 108.741 16.976 108.978 17.6091C109.215 18.2423 109.565 18.7441 110.028 19.1148C110.497 19.4802 111.073 19.6629 111.758 19.6629ZM125.53 21.6395C124.362 21.6395 123.355 21.3899 122.511 20.8906C121.672 20.3861 121.024 19.6784 120.565 18.7673C120.113 17.8511 119.886 16.7779 119.886 15.5476C119.886 14.3329 120.113 13.2622 120.565 12.3357C121.024 11.4092 121.662 10.686 122.48 10.1661C123.304 9.64619 124.266 9.38625 125.368 9.38625C126.037 9.38625 126.686 9.49692 127.314 9.71825C127.942 9.93959 128.505 10.287 129.005 10.7606C129.504 11.2341 129.898 11.8493 130.186 12.6059C130.474 13.3574 130.618 14.2711 130.618 15.3469V16.1653H121.191V14.4358H128.356C128.356 13.8284 128.232 13.2905 127.985 12.8221C127.738 12.3486 127.391 11.9754 126.943 11.7026C126.5 11.4297 125.981 11.2933 125.383 11.2933C124.735 11.2933 124.169 11.4529 123.685 11.772C123.206 12.086 122.835 12.4978 122.573 13.0074C122.316 13.5119 122.187 14.06 122.187 14.652V16.0032C122.187 16.7959 122.326 17.4702 122.604 18.0261C122.887 18.582 123.281 19.0067 123.785 19.3001C124.29 19.5883 124.879 19.7324 125.553 19.7324C125.991 19.7324 126.39 19.6707 126.75 19.5471C127.11 19.4184 127.422 19.228 127.684 18.9758C127.947 18.7236 128.148 18.4121 128.287 18.0415L130.472 18.4353C130.297 19.0787 129.983 19.6424 129.53 20.1262C129.082 20.6049 128.518 20.9781 127.839 21.2458C127.164 21.5083 126.395 21.6395 125.53 21.6395ZM133.18 21.4002V9.54067H135.411V11.4246H135.535C135.751 10.7863 136.132 10.2845 136.677 9.919C137.228 9.54839 137.851 9.36309 138.546 9.36309C138.69 9.36309 138.86 9.36823 139.055 9.37853C139.256 9.38882 139.413 9.40169 139.526 9.41713V11.6253C139.434 11.5996 139.269 11.5713 139.032 11.5404C138.796 11.5044 138.559 11.4864 138.322 11.4864C137.776 11.4864 137.29 11.6022 136.863 11.8338C136.441 12.0603 136.106 12.3769 135.859 12.7835C135.612 13.185 135.488 13.6431 135.488 14.1578V21.4002H133.18Z" fill="black"/>
<mask id="mask0_27_44" style="mask-type:luminance" maskUnits="userSpaceOnUse" x="0" y="3" width="25" height="22">
<path d="M24.4281 3.62106H0.5V24.5582H24.4281V3.62106Z" fill="white"/>
</mask>
<g mask="url(#mask0_27_44)">
<path d="M18.4461 24.5582V23.0627C18.4461 22.8663 18.4074 22.6718 18.3323 22.4903C18.2571 22.309 18.147 22.1441 18.0081 22.0051C17.8692 21.8663 17.7043 21.7562 17.5229 21.681C17.3414 21.6059 17.147 21.5672 16.9506 21.5672H10.9681C8.98495 21.5672 7.08301 20.7794 5.68067 19.377C4.27835 17.9747 3.49052 16.0728 3.49049 14.0896C3.49049 13.1077 3.68391 12.1353 4.0597 11.2281C4.43549 10.3209 4.98629 9.49655 5.68065 8.80219C6.37502 8.10784 7.19934 7.55706 8.10657 7.18128C9.01379 6.8055 9.98615 6.61211 10.9681 6.61212H16.9501C17.1465 6.61217 17.3411 6.57353 17.5226 6.49841C17.7041 6.42328 17.869 6.31312 18.0079 6.17425C18.1469 6.03536 18.257 5.87048 18.3323 5.689C18.4074 5.50753 18.4461 5.31303 18.4461 5.11659V3.62106H10.9685C9.59372 3.62106 8.23244 3.89184 6.96233 4.41794C5.69223 4.94403 4.53819 5.71515 3.56611 6.68724C2.59402 7.65935 1.82291 8.81339 1.29683 10.0835C0.77075 11.3536 0.499985 12.7149 0.5 14.0896C0.5 16.866 1.60292 19.5288 3.56613 21.492C5.52935 23.4552 8.19205 24.5582 10.9685 24.5582H18.4461Z" fill="black"/>
<path d="M6.48438 14.0896C6.48438 15.2795 6.95705 16.4206 7.79841 17.2619C8.63976 18.1034 9.78088 18.576 10.9707 18.576H18.4489C19.2422 18.576 20.0029 18.8912 20.5638 19.4521C21.1247 20.013 21.4399 20.7738 21.4399 21.5671V24.5581H24.4309V21.5672C24.4309 19.9807 23.8007 18.4591 22.6789 17.3372C21.557 16.2154 20.0354 15.5852 18.4489 15.5852H10.971C10.5743 15.5852 10.1939 15.4276 9.91346 15.1472C9.63299 14.8667 9.47543 14.4863 9.47543 14.0896C9.47543 13.693 9.63299 13.3126 9.91346 13.0321C10.1939 12.7517 10.5743 12.5941 10.971 12.5941H18.4489C20.0354 12.5941 21.557 11.9639 22.6789 10.842C23.8007 9.72019 24.4309 8.19864 24.4309 6.61212V3.62106H21.4394V6.61212C21.4394 7.40528 21.1244 8.16598 20.5636 8.72687C20.0028 9.28777 19.2421 9.60294 18.4489 9.60306H10.971C10.3818 9.60303 9.79834 9.71905 9.25398 9.94452C8.70963 10.17 8.21502 10.5005 7.79841 10.9171C7.38178 11.3337 7.0513 11.8283 6.82584 12.3727C6.60038 12.917 6.48435 13.5004 6.48438 14.0896Z" fill="black"/>
</g>
</svg>
