<svg width="66" height="65" viewBox="0 0 66 65" fill="none" xmlns="http://www.w3.org/2000/svg">
<path d="M32.9868 6.72656C27.8224 6.72656 22.774 8.258 18.4799 11.1272C14.1858 13.9964 10.839 18.0745 8.86266 22.8458C6.88631 27.6171 6.36921 32.8674 7.37674 37.9326C8.38427 42.9978 10.8712 47.6505 14.523 51.3023C18.1748 54.9541 22.8275 57.441 27.8927 58.4485C32.9579 59.456 38.2081 58.9389 42.9794 56.9626C47.7507 54.9862 51.8288 51.6394 54.698 47.3454C57.5673 43.0513 59.0987 38.0028 59.0987 32.8384C59.0914 25.9154 56.338 19.278 51.4426 14.3826C46.5473 9.48728 39.9099 6.73387 32.9868 6.72656ZM32.9868 48.9072C32.391 48.9072 31.8084 48.7305 31.313 48.3995C30.8175 48.0684 30.4313 47.5978 30.2033 47.0473C29.9752 46.4968 29.9156 45.891 30.0318 45.3065C30.1481 44.7221 30.435 44.1852 30.8564 43.7639C31.2778 43.3425 31.8146 43.0556 32.3991 42.9393C32.9835 42.8231 33.5893 42.8827 34.1398 43.1108C34.6904 43.3388 35.1609 43.725 35.492 44.2204C35.823 44.7159 35.9998 45.2984 35.9998 45.8943C35.9998 46.6934 35.6823 47.4597 35.1173 48.0248C34.5523 48.5898 33.7859 48.9072 32.9868 48.9072ZM34.9955 36.6748V36.8556C34.9955 37.3883 34.7838 37.8992 34.4071 38.2759C34.0305 38.6526 33.5196 38.8642 32.9868 38.8642C32.4541 38.8642 31.9432 38.6526 31.5666 38.2759C31.1899 37.8992 30.9782 37.3883 30.9782 36.8556V34.847C30.9782 34.3143 31.1899 33.8034 31.5666 33.4267C31.9432 33.05 32.4541 32.8384 32.9868 32.8384C36.3086 32.8384 39.0127 30.5787 39.0127 27.8169C39.0127 25.0551 36.3086 22.7954 32.9868 22.7954C29.6651 22.7954 26.961 25.0551 26.961 27.8169V28.8212C26.961 29.3539 26.7494 29.8648 26.3727 30.2415C25.996 30.6182 25.4852 30.8298 24.9524 30.8298C24.4197 30.8298 23.9088 30.6182 23.5321 30.2415C23.1555 29.8648 22.9438 29.3539 22.9438 28.8212V27.8169C22.9438 22.833 27.4481 18.7782 32.9868 18.7782C38.5256 18.7782 43.0299 22.833 43.0299 27.8169C43.0299 32.1806 39.5751 35.8337 34.9955 36.6748Z" fill="#CBD5E1"/>
</svg>
